# xmcd
#
# Track frame offsets: 
#        150
#        14152
#        24342
#        34985
#        48900
#        61887
#        74117
#        88840
#        102517
#        115542
#        126517
#        140195
#        151960
#        161360
#        174137
#        186430
#        198295
#        209390
#        219780
#        229965
#        240975
#        254867
#        266167
#        277272
#        291010
#        300642
#        311110
#        322010
#        334972
#
# Disc length: 4670 seconds
#
# Revision: 0
# Processed by: cddbd v1.5.1PL0 Copyright (c) Steve Scherf et al.
# Submitted via: ExactAudioCopy v0.95a4
#
DISCID=c6123c1d
DTITLE=Willie Nelson - Nashville Was The Roughest... - Disc 3
DYEAR=1900
DGENRE=Country
TTITLE0=Have I Stayed Away Too Long
TTITLE1=Some Other World
TTITLE2=If It's Wrong To Love You
TTITLE3=Have I Told You Lately That I Love You
TTITLE4=You Made Me Live, Love And Die
TTITLE5=Born To Lose
TTITLE6=What Now My Love
TTITLE7=Lovin' Lies
TTITLE8=Teach Me To Forget
TTITLE9=Tender Years
TTITLE10=A Mansion On The Hill
TTITLE11=Something To Think About
TTITLE12=Blackjack County Chain
TTITLE13=Don't Say Love Or Nothing
TTITLE14=You Ought To Hear Me Cry
TTITLE15=I Don't Feel Anything
TTITLE16=Hold Me Tighter
TTITLE17=I'll Stay Around
TTITLE18=A Moment Isn't Very Long
TTITLE19=The Ghost
TTITLE20=No Tomorrow In Sight
TTITLE21=There Goes A Man
TTITLE22=Go Away
TTITLE23=Once Alone
TTITLE24=The End Of Understanding
TTITLE25=To Make A Long Story Short (She's Gone)
TTITLE26=Suffer In Silence
TTITLE27=Truth Number One
TTITLE28=When I Don't Have You
EXTD=
EXTT0=
EXTT1=
EXTT2=
EXTT3=
EXTT4=
EXTT5=
EXTT6=
EXTT7=
EXTT8=
EXTT9=
EXTT10=
EXTT11=
EXTT12=
EXTT13=
EXTT14=
EXTT15=
EXTT16=
EXTT17=
EXTT18=
EXTT19=
EXTT20=
EXTT21=
EXTT22=
EXTT23=
EXTT24=
EXTT25=
EXTT26=
EXTT27=
EXTT28=
PLAYORDER=
